<svg width='100%' height='100%' position="absolute" top="0" left="0"viewBox="0 0 1000 1000" preserveAspectRatio="none"xmlns='http://www.w3.org/2000/svg'xmlns:xlink='http://www.w3.org/1999/xlink'>/*  100  horizontals  */<rect x="0" y= "3.3%" width="1200%" height="10%" fill="none" stroke="black"/><rect x="0" y= "6.6%" width="1200%" height="10%" fill="none" stroke="black"/><rect x="0" y="10.0%" width="1200%" height="10%" fill="none" stroke="black"/><rect x="0" y="13.3%" width="1200%" height="10%" fill="none" stroke="black"/><rect x="0" y="16.6%" width="1200%" height="10%" fill="none" stroke="black"/><rect x="0" y="20.0%" width="1200%" height="10%" fill="none" stroke="black"/><rect x="0" y="23.3%" width="1200%" height="10%" fill="none" stroke="black"/><rect x="0" y="26.6%" width="1200%" height="10%" fill="none" stroke="black"/><rect x="0" y="30.0%" width="1200%" height="10%" fill="none" stroke="black"/><rect x="0" y="33.3%" width="1200%" height="10%" fill="none" stroke="black"/><rect x="0" y="36.6%" width="1200%" height="10%" fill="none" stroke="black"/><rect x="0" y="40.0%" width="1200%" height="10%" fill="none" stroke="black"/><rect x="0" y="43.3%" width="1200%" height="10%" fill="none" stroke="black"/><rect x="0" y="46.6%" width="1200%" height="10%" fill="none" stroke="black"/><rect x="0" y="50.0%" width="1200%" height="10%" fill="none" stroke="black"/><rect x="0" y="53.3%" width="1200%" height="10%" fill="none" stroke="black"/><rect x="0" y="56.6%" width="1200%" height="10%" fill="none" stroke="black"/><rect x="0" y="60.0%" width="1200%" height="10%" fill="none" stroke="black"/><rect x="0" y="63.3%" width="1200%" height="10%" fill="none" stroke="black"/><rect x="0" y="66.6%" width="1200%" height="10%" fill="none" stroke="black"/><rect x="0" y="70.0%" width="1200%" height="10%" fill="none" stroke="black"/><rect x="0" y="73.3%" width="1200%" height="10%" fill="none" stroke="black"/><rect x="0" y="76.6%" width="1200%" height="10%" fill="none" stroke="black"/><rect x="0" y="80.0%" width="1200%" height="10%" fill="none" stroke="black"/><rect x="0" y="83.3%" width="1200%" height="10%" fill="none" stroke="black"/><rect x="0" y="86.6%" width="1200%" height="10%" fill="none" stroke="black"/><rect x="0" y="90.0%" width="1200%" height="10%" fill="none" stroke="black"/><rect x="0" y="93.3%" width="1200%" height="10%" fill="none" stroke="black"/><rect x="0" y="96.6%" width="1200%" height="10%" fill="none" stroke="black"/><rect x="0" y="0.00%" width="1200%" height="6.6%" fill="blue" stroke="black"/><rect x="0" y="76.6%" width="1200%" height="6.6%" fill="blue" stroke="black"/><rect x= "5.8%" y="10.2%" width="1200%" height="3%" fill="blue"/><rect x= "5.8%" y="16.8%" width="1200%" height="3%" fill="blue"/><rect x= "5.8%" y="26.8%" width="1200%" height="3%" fill="blue"/><rect x= "5.8%" y="26.9%" width="1200%" height="3%" fill="blue"/><rect x= "5.8%" y="33.3%" width="1200%" height="3%" fill="blue"/><rect x= "5.8%" y="43.4%" width="1200%" height="3%" fill="blue"/><rect x= "5.8%" y="53.5%" width="1200%" height="3%" fill="blue"/><rect x= "5.8%" y="63.5%" width="1200%" height="3%" fill="blue"/><rect x= "5.8%" y="70.1%" width="1200%" height="3%" fill="blue"/>/*  57.2  verticals  */<rect x="0.000%" y="0.0%" width="2.86%" height="1200%" fill="blue" stroke="black"/><rect x="2.860%" y="6.5%" width="2.86%" height="70.0%" fill="black" stroke="black"/><rect x="94.30%" y="6.5%" width="2.86%" height="70.0%" fill="black" stroke="black"/><rect x="97.16%" y="0.0%" width="2.86%" height="1200%" fill="blue" stroke="black"/><rect x="2.860%" y="0" width="2.86%" height="1200%" fill="none" stroke="black"/><rect x="8.580%" y="0" width="2.86%" height="1200%" fill="none" stroke="black"/><rect x="14.30%" y="0" width="2.86%" height="1200%" fill="none" stroke="black"/><rect x="20.02%" y="0" width="2.86%" height="1200%" fill="none" stroke="black"/><rect x="22.88%" y="0" width="2.86%" height="1200%" fill="none" stroke="black"/><rect x="25.74%" y="0" width="2.86%" height="1200%" fill="none" stroke="black"/><rect x="31.46%" y="0" width="2.86%" height="1200%" fill="none" stroke="black"/><rect x="37.18%" y="0" width="2.86%" height="1200%" fill="none" stroke="black"/><rect x="42.90%" y="0" width="2.86%" height="1200%" fill="none" stroke="black"/><rect x="48.62%" y="0" width="2.86%" height="1200%" fill="none" stroke="black"/><rect x="54.34%" y="0" width="2.86%" height="1200%" fill="none" stroke="black"/><rect x="60.06%" y="0" width="2.86%" height="1200%" fill="none" stroke="black"/><rect x="65.78%" y="0" width="2.86%" height="1200%" fill="none" stroke="black"/><rect x="71.50%" y="0" width="2.86%" height="1200%" fill="none" stroke="black"/><rect x="77.22%" y="0" width="2.86%" height="1200%" fill="none" stroke="black"/><rect x="82.94%" y="0" width="2.86%" height="1200%" fill="none" stroke="black"/><rect x="88.66%" y="0" width="2.86%" height="1200%" fill="none" stroke="black"/><rect x="94.38%" y="0" width="2.86%" height="1200%" fill="none" stroke="black"/><text font-family="Monospace" font-size="40" style="fill:white;"><tspan x="0.4%" y="11%">J</tspan><tspan x="97.16%">J</tspan><tspan x="0.4%" y="19%">U</tspan><tspan x="97.16%">U</tspan><tspan x="0.4%" y="27%">L</tspan><tspan x="97.16%">L</tspan><tspan x="0.4%" y="35%">Y</tspan><tspan x="97.16%">Y</tspan><tspan x="0.4%" y="51%">2</tspan><tspan x="97.16%">2</tspan><tspan x="0.4%" y="59%">0</tspan><tspan x="97.16%">0</tspan><tspan x="0.4%" y="67%">2</tspan><tspan x="97.16%">2</tspan><tspan x="0.4%" y="75%">3</tspan><tspan x="97.16%">3</tspan><tspan x="0.4%" y="91%">A</tspan><tspan x="97.16%">A</tspan><tspan x="0.4%" y="99%">U</tspan><tspan x="97.16%">U</tspan></text><rect  x= "5.8%" y="36.7%" width=  "13%" height="3%" fill="red"/><!--414--><rect  x= "56%" y="36.7%" width=  "11%" height="3%" fill="red"/><!--414--><rect  x= "72%" y="36.7%" width=  "4%" height="3%" fill="red"/><!--414--><rect  x="20.1%" y="23.4%" width="15.9%" height="3%" fill="red"/><!--321--><rect  x="32.1%" y="66.8%" width="29.5%" height="3%" fill="red"/><!--420--><text font-family="Monospace" font-size="15" style="fill:white;"><tspan x="3%" y= "8.7%">309</tspan><tspan x="94.3%">309</tspan><tspan x="3%" y="12.1%"></tspan><tspan x="3%" y="15.5%">317</tspan><tspan x="94.3%">317</tspan><tspan x="3%" y="18.9%"></tspan><tspan x="3%" y="22.3%">320</tspan><tspan x="94.3%">320</tspan><tspan x="3%" y="25.7%">321</tspan><tspan x="94.3%">321</tspan><tspan x="20%" fill="#ff0">Gustav+wife+gson3</tspan><tspan x="3%" y="29.1%" fill="#ff0"></tspan><tspan x="3%" y="32.5%">412</tspan><tspan x="94.33%">412</tspan><tspan x="3%" y="35.9%"></tspan><tspan x="3%" y="39.1%">414</tspan><tspan x="94.3%">414</tspan><tspan x="6%" y="39%" fill="#ff0">B.com  (UK)</tspan><tspan x="57%" y="39%" fill="#ff0">B.com</tspan><tspan x="72%" y="39%" fill="#ff0">B.c</tspan><tspan x="3%" y="42.5%">415</tspan><tspan x="94.3%">415</tspan><tspan x="3%" y="46.1%"></tspan><tspan x="3%" y="49.3%">416</tspan><tspan x="94.3%">416</tspan><tspan x="3%" y="52.7%">417</tspan><tspan x="94.3%">417</tspan><tspan x="3%" y="56.3%"></tspan><tspan x="3%" y="59.2%">418</tspan><tspan x="94.3%">418</tspan><tspan x="3%" y="62.7%">419</tspan><tspan x="94.3%">419</tspan><tspan x="3%" y="66.3%"></tspan><tspan x="3%" y="69.3%">420</tspan><tspan x="94.3%">420</tspan><tspan x="35%" y="69.1%" fill="#ff0">Borita 2+ch3</tspan><tspan x="3%" y="73.1%"></tspan><tspan x="3%" y="75.6%">338</tspan><tspan x="94.3%">338</tspan></text>/*  DAYS  OF  THE  WEEK  +  1 to 31  */<text font-family="Monospace" font-size="15.3" style="fill:white;"  ><tspan x="6.00%" y= "3%">SatSun</tspan><tspan x="6.00%" y= "79.4%">SatSun</tspan><tspan x="11.7%" y= "3%">MonTue</tspan><tspan x="11.7%" y= "79.4%">MonTue</tspan><tspan x="17.4%" y= "3%">WedThu</tspan><tspan x="17.4%" y= "79.4%">WedThu</tspan><tspan x="23.1%" y= "3%">FriSat</tspan><tspan x="23.1%" y= "79.4%">FriSat</tspan><tspan x="28.8%" y= "3%">SunMon</tspan><tspan x="28.8%" y= "79.4%">SunMon</tspan><tspan x="34.5%" y= "3%">TueWed</tspan><tspan x="34.5%" y= "79.4%">TueWed</tspan><tspan x="40.2%" y= "3%">ThuFri</tspan><tspan x="40.2%" y= "79.4%">ThuFri</tspan><tspan x="46.0%" y= "3%">SatSun</tspan><tspan x="46.0%" y= "79.4%">SatSun</tspan><tspan x="51.7%" y= "3%">MonTue</tspan><tspan x="51.7%" y= "79.4%">MonTue</tspan><tspan x="57.3%" y= "3%">WedThu</tspan><tspan x="57.3%" y= "79.4%">WedThu</tspan><tspan x="63.1%" y= "3%">FriSat</tspan><tspan x="63.1%" y= "79.4%">FriSat</tspan><tspan x="68.9%" y= "3%">SunMon</tspan><tspan x="68.9%" y= "79.4%">SunMon</tspan><tspan x="74.6%" y= "3%">TueWed</tspan><tspan x="74.6%" y= "79.4%">TueWed</tspan><tspan x="80.3%" y= "3%">ThuFri</tspan><tspan x="80.3%" y= "79.4%">ThuFri</tspan><tspan x="86.0%" y= "3%">SatSun</tspan><tspan x="86.0%" y= "79.4%">SatSun</tspan><tspan x="91.7%" y= "3%">Mon</tspan><tspan x="91.7%" y= "79.4%">Mon</tspan></text><text font-family="Monospace" font-size="23.5" style="fill:white;"><tspan x="7.00%" y="5.5%">1 2 3 4 5 6 7 8 9</tspan><tspan x="32.0%" y="5.5%" font-size="16">10 11 12 13 14 15 16 17 18 19 20</tspan><tspan x="63.5%" y="5.5%" font-size="16">21 22 23 24 25 26 27 28 29 30 31</tspan></text><text font-family="Monospace" font-size="23.5" style="fill:white;"><tspan x="7.00%" y="29%">1 2 3 4 5 6 7 8 9</tspan><tspan x="32.0%" y="29%" font-size="16">10 11 12 13 14 15 16 17 18 19 20</tspan><tspan x="63.5%" y="29%" font-size="16">21 22 23 24 25 26 27 28 29 30 31</tspan></text><text font-family="Monospace" font-size="23.5" style="fill:white;"><tspan x="7.00%" y= "55.7%">1 2 3 4 5 6 7 8 9</tspan><tspan x="32.0%" y= "55.7%" font-size="16">10 11 12 13 14 15 16 17 18 19 20</tspan><tspan x="63.5%" y= "55.7%" font-size="16">21 22 23 24 25 26 27 28 29 30 31</tspan></text><text font-family="Monospace" font-size="23.5" style="fill:white;"><tspan x="7.00%" y="82.3%">1 2 3 4 5 6 7 8 9</tspan><tspan x="32.0%" y="82.30%" font-size="16">10 11 12 13 14 15 16 17 18 19 20</tspan><tspan x="63.5%" y="82.30%" font-size="16">21 22 23 24 25 26 27 28 29 30 31</tspan></text></svg>